<?xml version="1.0" encoding="UTF-8"?>
<svg xmlns="http://www.w3.org/2000/svg" xmlns:xlink="http://www.w3.org/1999/xlink" width="480pt" height="480pt" viewBox="0 0 480 480" version="1.1">
<g id="surface1192505">
<path style=" stroke:none;fill-rule:nonzero;fill:rgb(10.196078%,73.72549%,61.176471%);fill-opacity:1;" d="M 440 120 L 424.21875 120 C 418.28125 120 410 128.59375 410 134.0625 L 410 347.03125 C 410 352.5 418.28125 360 424.21875 360 L 440 360 L 440 400 L 300 400 L 300 360 L 320 360 L 320 160 L 260 400 L 200.9375 400 L 140 160 L 140 360 L 160 360 L 160 400 L 40 400 L 40 360 L 60 360 C 66.328125 360 74.609375 352.5 74.609375 347.03125 L 74.609375 134.0625 C 74.609375 128.59375 66.328125 120 60 120 L 40 120 L 40 80 L 200 80 L 240 260 L 280 80 L 440 80 Z M 440 120 "/>
</g>
</svg>
