<?xml version="1.0" encoding="UTF-8"?>
<svg xmlns="http://www.w3.org/2000/svg" xmlns:xlink="http://www.w3.org/1999/xlink" width="480pt" height="480pt" viewBox="0 0 480 480" version="1.1">
<g id="surface1191151">
<path style=" stroke:none;fill-rule:nonzero;fill:rgb(10.196078%,73.72549%,61.176471%);fill-opacity:1;" d="M 69 84 C 47.554688 84 30.046875 101.484375 30 122.90625 C 30 122.929688 30 122.929688 30 122.953125 C 30 122.976562 30 122.976562 30 123 L 30 369 C 30 390.46875 47.53125 408 69 408 L 411 408 C 432.46875 408 450 390.46875 450 369 L 450 123 C 450 122.976562 450 122.976562 450 122.953125 C 450 122.929688 450 122.929688 450 122.90625 C 449.953125 101.484375 432.445312 84 411 84 Z M 69 96 L 411 96 C 416.671875 96 421.921875 97.734375 426.257812 100.6875 L 425.367188 102.304688 L 427.617188 107.179688 L 432.867188 108.304688 L 433.5 108.023438 C 436.335938 112.3125 438 117.421875 438 122.976562 C 438 122.976562 438 122.976562 438 123 C 437.976562 132.796875 433.195312 141.9375 425.15625 147.539062 L 240 276.5625 L 54.84375 147.539062 C 46.804688 141.9375 42.023438 132.796875 42 123 C 42 122.976562 42 122.976562 42 122.976562 C 42 117.210938 43.828125 111.914062 46.875 107.53125 L 50.296875 108.023438 L 54.09375 104.25 L 53.601562 100.804688 C 57.960938 97.804688 63.257812 96 69 96 Z M 66.1875 110.367188 L 62.390625 114.1875 L 63.164062 119.507812 L 64.664062 120.984375 L 65.15625 121.335938 L 70.476562 122.085938 L 74.273438 118.3125 L 73.5 112.96875 L 72 111.46875 L 71.53125 111.140625 Z M 410.15625 110.4375 L 408.257812 111.304688 L 407.742188 111.65625 L 405.1875 116.367188 L 407.4375 121.265625 L 412.6875 122.367188 L 414.609375 121.5 L 415.101562 121.148438 L 417.65625 116.4375 L 415.40625 111.5625 Z M 86.367188 124.429688 L 82.570312 128.25 L 83.34375 133.570312 L 84.84375 135.070312 L 85.3125 135.398438 L 90.65625 136.171875 L 94.453125 132.375 L 93.679688 127.03125 L 92.179688 125.554688 L 91.6875 125.203125 Z M 390 124.5 L 388.054688 125.367188 L 387.5625 125.71875 L 385.007812 130.429688 L 387.257812 135.328125 L 392.507812 136.453125 L 394.429688 135.5625 L 394.921875 135.210938 L 397.5 130.5 L 395.25 125.625 Z M 106.570312 138.492188 L 102.75 142.3125 L 103.523438 147.632812 L 105.023438 149.132812 L 105.515625 149.460938 L 110.835938 150.234375 L 114.632812 146.4375 L 113.882812 141.117188 L 112.382812 139.617188 L 111.867188 139.289062 Z M 369.796875 138.5625 L 367.875 139.429688 L 367.382812 139.78125 L 364.804688 144.492188 L 367.054688 149.390625 L 372.328125 150.515625 L 374.25 149.625 L 374.742188 149.273438 L 377.320312 144.5625 L 375.070312 139.6875 Z M 42 152.179688 C 43.828125 154.078125 45.796875 155.835938 48 157.382812 L 71.859375 174 C 68.601562 174.09375 66 176.742188 66 180 C 66 183.304688 68.695312 186 72 186 C 75.304688 186 78 183.304688 78 180 C 78 179.34375 77.882812 178.6875 77.671875 178.054688 L 240 291.1875 L 402.328125 178.054688 C 402.117188 178.6875 402 179.34375 402 180 C 402 183.304688 404.695312 186 408 186 C 411.304688 186 414 183.304688 414 180 C 414 176.742188 411.398438 174.070312 408.140625 174 L 432 157.382812 C 434.203125 155.835938 436.171875 154.078125 438 152.179688 L 438 369 C 438 382.96875 427.523438 394.195312 414 395.695312 C 413.835938 392.507812 411.1875 390 408 390 C 404.695312 390 402 392.695312 402 396 L 78 396 C 78 392.695312 75.304688 390 72 390 C 68.8125 390 66.164062 392.507812 66 395.695312 C 52.476562 394.195312 42 382.96875 42 369 Z M 126.75 152.554688 L 122.929688 156.375 L 123.703125 161.695312 L 125.203125 163.195312 L 125.695312 163.523438 L 131.015625 164.296875 L 134.8125 160.5 L 134.0625 155.179688 L 132.5625 153.679688 L 132.070312 153.351562 Z M 349.617188 152.625 L 347.695312 153.492188 L 347.203125 153.84375 L 344.625 158.578125 L 346.875 163.453125 L 352.148438 164.578125 L 354.070312 163.6875 L 354.5625 163.335938 L 357.117188 158.625 L 354.867188 153.75 Z M 146.929688 166.617188 L 143.132812 170.4375 L 143.90625 175.757812 L 145.382812 177.257812 L 145.875 177.585938 L 151.195312 178.382812 L 154.992188 174.5625 L 154.21875 169.242188 L 152.742188 167.742188 L 152.25 167.414062 Z M 329.4375 166.6875 L 327.515625 167.554688 L 327.023438 167.90625 L 324.46875 172.640625 L 326.71875 177.539062 L 331.96875 178.640625 L 333.867188 177.75 L 334.382812 177.421875 L 336.9375 172.6875 L 334.6875 167.8125 Z M 167.109375 180.703125 L 163.3125 184.5 L 164.0625 189.820312 L 165.5625 191.320312 L 166.054688 191.648438 L 171.375 192.445312 L 175.195312 188.625 L 174.398438 183.304688 L 172.921875 181.804688 L 172.429688 181.476562 Z M 309.257812 180.75 L 307.335938 181.640625 L 306.84375 181.96875 L 304.289062 186.703125 L 306.539062 191.601562 L 311.789062 192.726562 L 313.6875 191.8125 L 314.179688 191.484375 L 316.757812 186.75 L 314.507812 181.875 Z M 187.289062 194.765625 L 183.46875 198.5625 L 184.242188 203.882812 L 185.742188 205.382812 L 186.257812 205.710938 L 191.554688 206.507812 L 195.375 202.6875 L 194.601562 197.367188 L 193.101562 195.867188 L 192.609375 195.539062 Z M 289.078125 194.8125 L 287.15625 195.703125 L 286.664062 196.03125 L 284.085938 200.765625 L 286.335938 205.664062 L 291.585938 206.789062 L 293.53125 205.875 L 294 205.546875 L 296.578125 200.8125 L 294.328125 195.9375 Z M 72 198 C 68.695312 198 66 200.695312 66 204 C 66 207.304688 68.695312 210 72 210 C 75.304688 210 78 207.304688 78 204 C 78 200.695312 75.304688 198 72 198 Z M 408 198 C 404.695312 198 402 200.695312 402 204 C 402 207.304688 404.695312 210 408 210 C 411.304688 210 414 207.304688 414 204 C 414 200.695312 411.304688 198 408 198 Z M 207.46875 208.828125 L 203.671875 212.625 L 204.445312 217.96875 L 205.945312 219.445312 L 206.4375 219.773438 L 211.757812 220.570312 L 215.53125 216.75 L 214.78125 211.429688 L 213.28125 209.929688 L 212.789062 209.601562 Z M 268.875 208.875 L 266.976562 209.765625 L 266.460938 210.117188 L 263.90625 214.851562 L 266.15625 219.726562 L 271.40625 220.851562 L 273.351562 219.960938 L 273.84375 219.609375 L 276.398438 214.875 L 274.148438 210 Z M 72 222 C 68.695312 222 66 224.695312 66 228 C 66 231.304688 68.695312 234 72 234 C 75.304688 234 78 231.304688 78 228 C 78 224.695312 75.304688 222 72 222 Z M 408 222 C 404.695312 222 402 224.695312 402 228 C 402 231.304688 404.695312 234 408 234 C 411.304688 234 414 231.304688 414 228 C 414 224.695312 411.304688 222 408 222 Z M 227.648438 222.890625 L 223.851562 226.6875 L 224.625 232.03125 L 226.125 233.507812 L 226.59375 233.859375 L 231.9375 234.632812 L 235.734375 230.8125 L 234.960938 225.492188 L 233.460938 224.015625 L 232.96875 223.664062 Z M 248.71875 222.9375 L 246.773438 223.851562 L 246.28125 224.179688 L 243.726562 228.914062 L 245.976562 233.789062 L 251.25 234.914062 L 253.148438 234.023438 L 253.664062 233.695312 L 256.21875 228.960938 L 253.96875 224.0625 Z M 72 246 C 68.695312 246 66 248.695312 66 252 C 66 255.304688 68.695312 258 72 258 C 75.304688 258 78 255.304688 78 252 C 78 248.695312 75.304688 246 72 246 Z M 408 246 C 404.695312 246 402 248.695312 402 252 C 402 255.304688 404.695312 258 408 258 C 411.304688 258 414 255.304688 414 252 C 414 248.695312 411.304688 246 408 246 Z M 72 270 C 68.695312 270 66 272.695312 66 276 C 66 279.304688 68.695312 282 72 282 C 75.304688 282 78 279.304688 78 276 C 78 272.695312 75.304688 270 72 270 Z M 408 270 C 404.695312 270 402 272.695312 402 276 C 402 279.304688 404.695312 282 408 282 C 411.304688 282 414 279.304688 414 276 C 414 272.695312 411.304688 270 408 270 Z M 72 294 C 68.695312 294 66 296.695312 66 300 C 66 303.304688 68.695312 306 72 306 C 75.304688 306 78 303.304688 78 300 C 78 296.695312 75.304688 294 72 294 Z M 408 294 C 404.695312 294 402 296.695312 402 300 C 402 303.304688 404.695312 306 408 306 C 411.304688 306 414 303.304688 414 300 C 414 296.695312 411.304688 294 408 294 Z M 72 318 C 68.695312 318 66 320.695312 66 324 C 66 327.304688 68.695312 330 72 330 C 75.304688 330 78 327.304688 78 324 C 78 320.695312 75.304688 318 72 318 Z M 408 318 C 404.695312 318 402 320.695312 402 324 C 402 327.304688 404.695312 330 408 330 C 411.304688 330 414 327.304688 414 324 C 414 320.695312 411.304688 318 408 318 Z M 72 342 C 68.695312 342 66 344.695312 66 348 C 66 351.304688 68.695312 354 72 354 C 75.304688 354 78 351.304688 78 348 C 78 344.695312 75.304688 342 72 342 Z M 408 342 C 404.695312 342 402 344.695312 402 348 C 402 351.304688 404.695312 354 408 354 C 411.304688 354 414 351.304688 414 348 C 414 344.695312 411.304688 342 408 342 Z M 72 366 C 68.695312 366 66 368.695312 66 372 C 66 375.304688 68.695312 378 72 378 C 75.304688 378 78 375.304688 78 372 C 78 368.695312 75.304688 366 72 366 Z M 408 366 C 404.695312 366 402 368.695312 402 372 C 402 375.304688 404.695312 378 408 378 C 411.304688 378 414 375.304688 414 372 C 414 368.695312 411.304688 366 408 366 Z M 408 366 "/>
</g>
</svg>
