<?xml version="1.0" encoding="UTF-8"?>
<svg xmlns="http://www.w3.org/2000/svg" xmlns:xlink="http://www.w3.org/1999/xlink" width="480pt" height="480pt" viewBox="0 0 480 480" version="1.1">
<g id="surface1932386">
<path style=" stroke:none;fill-rule:nonzero;fill:rgb(10.196078%,73.72549%,61.176471%);fill-opacity:1;" d="M 436.125 76.476562 L 422.53125 84.539062 C 408.726562 92.71875 393.445312 98.601562 377.25 102.09375 C 362.0625 87.28125 341.4375 77.953125 318.5625 77.953125 C 272.039062 77.953125 234.164062 115.828125 234.164062 162.375 C 234.164062 166.054688 234.914062 169.546875 235.382812 173.132812 C 174.960938 168.070312 121.429688 138.914062 85.21875 94.523438 L 79.757812 87.796875 L 75.398438 95.296875 C 68.132812 107.765625 63.960938 122.273438 63.960938 137.71875 C 63.960938 158.976562 72 178.3125 84.984375 193.171875 C 80.578125 191.71875 76.242188 190.148438 72.257812 187.945312 L 63.351562 182.976562 L 63.351562 194.15625 C 63.351562 225.585938 80.742188 252.773438 106.289062 267.28125 C 103.5 267.09375 100.664062 267.023438 97.96875 266.507812 L 88.03125 264.609375 L 91.125 274.21875 C 100.289062 302.835938 124.640625 323.765625 154.382812 330.046875 C 130.734375 345.234375 102.914062 354.398438 72.703125 354.398438 C 66.609375 354.398438 60.609375 354.070312 54.703125 353.34375 L 28.78125 350.25 L 50.765625 364.382812 C 86.390625 387.210938 128.742188 400.523438 174.1875 400.523438 C 247.945312 400.523438 305.53125 369.796875 344.296875 325.804688 C 383.0625 281.835938 403.242188 224.789062 403.242188 171.46875 C 403.242188 168.9375 403.171875 166.453125 403.101562 163.96875 C 417.84375 152.835938 430.851562 139.429688 441.140625 124.054688 L 452.648438 106.828125 L 433.710938 115.242188 C 426.632812 118.40625 419.390625 120.890625 411.960938 122.90625 C 420.375 113.90625 427.40625 103.710938 431.320312 91.523438 Z M 318.5625 89.953125 C 339.421875 89.953125 358.21875 98.742188 371.4375 112.828125 L 373.6875 115.242188 L 376.96875 114.609375 C 389.296875 112.171875 400.875 107.90625 412.03125 102.890625 C 406.171875 112.757812 398.953125 121.523438 388.945312 127.523438 L 384.164062 130.382812 L 388.6875 139.40625 L 392.882812 138.914062 C 401.625 137.835938 409.96875 135.984375 418.078125 133.617188 C 410.625 142.007812 402.609375 149.882812 393.515625 156.46875 L 390.914062 158.34375 L 391.03125 161.578125 C 391.171875 164.859375 391.242188 168.164062 391.242188 171.46875 C 391.242188 221.742188 372.023438 276.234375 335.296875 317.882812 C 298.570312 359.53125 244.640625 388.523438 174.1875 388.523438 C 139.757812 388.523438 107.414062 380.203125 78.515625 365.90625 C 114.328125 364.640625 147.375 352.265625 173.789062 331.570312 L 187.054688 321.164062 L 170.179688 320.835938 C 141.960938 320.320312 118.453125 303.257812 106.96875 279.351562 C 108.515625 279.445312 109.992188 279.796875 111.5625 279.796875 C 119.273438 279.796875 126.75 278.765625 133.828125 276.84375 L 158.25 270.140625 L 133.40625 265.148438 C 103.125 259.078125 80.648438 233.8125 76.851562 202.710938 C 85.59375 206.132812 94.804688 208.664062 104.648438 208.96875 L 125.625 209.648438 L 108.1875 198 C 88.757812 185.015625 75.960938 162.890625 75.960938 137.71875 C 75.960938 127.3125 78.703125 117.726562 82.617188 108.796875 C 122.179688 153.421875 178.359375 183.046875 241.875 186.210938 L 249.820312 186.632812 L 248.039062 178.875 C 246.796875 173.578125 246.164062 168.046875 246.164062 162.375 C 246.164062 122.320312 278.53125 89.953125 318.5625 89.953125 Z M 318 102 C 314.695312 102 312 104.695312 312 108 C 312 111.304688 314.695312 114 318 114 C 321.304688 114 324 111.304688 324 108 C 324 104.695312 321.304688 102 318 102 Z M 290.835938 109.21875 C 289.851562 109.265625 288.867188 109.523438 288 110.039062 C 285.117188 111.703125 284.132812 115.359375 285.796875 118.21875 C 287.460938 121.101562 291.117188 122.085938 294 120.445312 C 295.359375 119.648438 296.367188 118.335938 296.789062 116.789062 C 297.210938 115.242188 297 113.601562 296.179688 112.21875 C 295.101562 110.320312 293.039062 109.171875 290.835938 109.21875 Z M 270.9375 129 C 268.921875 129.117188 267.070312 130.242188 266.039062 132 C 265.242188 133.382812 265.03125 135.023438 265.429688 136.546875 C 265.851562 138.09375 266.859375 139.40625 268.21875 140.203125 C 271.101562 141.867188 274.757812 140.859375 276.421875 138 C 278.085938 135.140625 277.101562 131.460938 274.21875 129.820312 C 273.234375 129.234375 272.085938 128.953125 270.9375 129 Z M 264 156 C 260.695312 156 258 158.695312 258 162 C 258 165.304688 260.695312 168 264 168 C 267.304688 168 270 165.304688 270 162 C 270 158.695312 267.304688 156 264 156 Z M 144 210 C 140.695312 210 138 212.695312 138 216 C 138 219.304688 140.695312 222 144 222 C 147.304688 222 150 219.304688 150 216 C 150 212.695312 147.304688 210 144 210 Z M 168 216 C 164.695312 216 162 218.695312 162 222 C 162 225.304688 164.695312 228 168 228 C 171.304688 228 174 225.304688 174 222 C 174 218.695312 171.304688 216 168 216 Z M 192 222 C 188.695312 222 186 224.695312 186 228 C 186 231.304688 188.695312 234 192 234 C 195.304688 234 198 231.304688 198 228 C 198 224.695312 195.304688 222 192 222 Z M 174 264 C 170.695312 264 168 266.695312 168 270 C 168 273.304688 170.695312 276 174 276 C 177.304688 276 180 273.304688 180 270 C 180 266.695312 177.304688 264 174 264 Z M 198 264 C 194.695312 264 192 266.695312 192 270 C 192 273.304688 194.695312 276 198 276 C 201.304688 276 204 273.304688 204 270 C 204 266.695312 201.304688 264 198 264 Z M 204 306 C 200.695312 306 198 308.695312 198 312 C 198 315.304688 200.695312 318 204 318 C 207.304688 318 210 315.304688 210 312 C 210 308.695312 207.304688 306 204 306 Z M 204 306 "/>
</g>
</svg>
