<?xml version="1.0" encoding="UTF-8"?>
<svg xmlns="http://www.w3.org/2000/svg" xmlns:xlink="http://www.w3.org/1999/xlink" width="400pt" height="400pt" viewBox="0 0 400 400" version="1.1">
<g id="surface1192135">
<path style=" stroke:none;fill-rule:nonzero;fill:rgb(10.196078%,73.72549%,61.176471%);fill-opacity:1;" d="M 121.226562 70.617188 C 92.554688 70.617188 69.226562 93.945312 69.226562 122.617188 L 69.226562 278.617188 C 69.226562 307.289062 92.554688 330.617188 121.226562 330.617188 L 277.226562 330.617188 C 305.898438 330.617188 329.226562 307.289062 329.226562 278.617188 L 329.226562 122.617188 C 329.226562 93.941406 305.902344 70.617188 277.226562 70.617188 Z M 121.226562 78.617188 L 277.226562 78.617188 C 301.488281 78.617188 321.226562 98.355469 321.226562 122.617188 L 321.226562 278.617188 C 321.226562 302.878906 301.488281 322.617188 277.226562 322.617188 L 121.226562 322.617188 C 96.964844 322.617188 77.226562 302.878906 77.226562 278.617188 L 77.226562 122.617188 C 77.226562 98.355469 96.964844 78.617188 121.226562 78.617188 Z M 132.578125 90.609375 C 108.675781 90.609375 89.226562 110.058594 89.226562 133.960938 L 89.226562 267.265625 C 89.226562 291.167969 108.675781 310.609375 132.578125 310.609375 L 265.882812 310.609375 C 289.785156 310.609375 309.226562 291.167969 309.226562 267.265625 L 309.226562 192.617188 C 309.226562 191.507812 308.332031 190.617188 307.226562 190.617188 C 306.121094 190.617188 305.226562 191.511719 305.226562 192.617188 L 305.226562 267.265625 C 305.226562 288.960938 287.578125 306.617188 265.882812 306.617188 L 132.578125 306.617188 C 110.882812 306.617188 93.226562 288.960938 93.226562 267.265625 L 93.226562 133.960938 C 93.226562 112.265625 110.882812 94.609375 132.578125 94.609375 L 267.226562 94.609375 C 268.332031 94.609375 269.226562 93.714844 269.226562 92.609375 C 269.226562 91.503906 268.332031 90.609375 267.226562 90.609375 Z M 155.296875 142.78125 C 146.949219 142.78125 140.890625 148.632812 140.890625 156.695312 C 140.890625 164.757812 146.824219 170.609375 155.148438 170.609375 C 163.496094 170.609375 169.5625 164.761719 169.5625 156.648438 C 169.363281 148.484375 163.488281 142.78125 155.296875 142.78125 Z M 155.296875 146.78125 C 161.382812 146.78125 165.414062 150.699219 165.5625 156.703125 C 165.566406 162.539062 161.289062 166.617188 155.015625 166.617188 C 149.058594 166.617188 144.890625 162.539062 144.890625 156.703125 C 144.890625 150.863281 149.167969 146.78125 155.296875 146.78125 Z M 307.226562 150.617188 C 306.121094 150.617188 305.226562 151.507812 305.226562 152.617188 L 305.226562 160.617188 C 305.226562 161.722656 306.121094 162.617188 307.226562 162.617188 C 308.332031 162.617188 309.226562 161.722656 309.226562 160.617188 L 309.226562 152.617188 C 309.226562 151.511719 308.332031 150.617188 307.226562 150.617188 Z M 307.226562 166.617188 C 306.121094 166.617188 305.226562 167.511719 305.226562 168.617188 L 305.226562 184.617188 C 305.226562 185.722656 306.121094 186.617188 307.226562 186.617188 C 308.332031 186.617188 309.226562 185.722656 309.226562 184.617188 L 309.226562 168.617188 C 309.226562 167.507812 308.332031 166.617188 307.226562 166.617188 Z M 230.304688 178.125 C 221.503906 178.175781 214.371094 180.804688 209.21875 186.328125 L 209.21875 180.609375 C 209.21875 179.503906 208.324219 178.609375 207.21875 178.609375 L 182.921875 178.609375 C 182.375 178.609375 181.847656 178.832031 181.46875 179.226562 C 181.09375 179.621094 180.898438 180.160156 180.921875 180.703125 C 181.246094 187.699219 180.921875 255.914062 180.921875 256.601562 C 180.917969 257.136719 181.128906 257.648438 181.5 258.023438 C 181.875 258.398438 182.386719 258.609375 182.914062 258.609375 L 207.226562 258.609375 C 208.332031 258.609375 209.226562 257.714844 209.226562 256.609375 L 209.226562 214.15625 C 209.226562 211.707031 209.460938 209.890625 209.929688 208.742188 C 210.902344 206.34375 213.925781 200.757812 221.0625 200.757812 C 231.734375 200.757812 232.890625 211.585938 232.890625 216.257812 L 233.21875 256.625 C 233.226562 257.726562 234.121094 258.609375 235.21875 258.609375 L 259.21875 258.609375 C 260.324219 258.609375 261.21875 257.714844 261.21875 256.609375 L 261.21875 215.898438 C 261.21875 202.578125 257.933594 192.542969 251.453125 186.070312 C 246.171875 180.796875 239.0625 178.125 230.304688 178.125 Z M 143.226562 178.617188 C 142.121094 178.617188 141.226562 179.511719 141.226562 180.617188 L 141.226562 256.617188 C 141.226562 257.722656 142.121094 258.617188 143.226562 258.617188 L 167.226562 258.617188 C 168.332031 258.617188 169.226562 257.722656 169.226562 256.617188 L 169.226562 180.617188 C 169.226562 179.511719 168.332031 178.617188 167.226562 178.617188 Z M 230.242188 182.132812 L 230.304688 182.132812 C 237.964844 182.132812 244.132812 184.414062 248.632812 188.90625 C 254.332031 194.597656 257.226562 203.679688 257.226562 215.898438 L 257.226562 254.617188 L 237.210938 254.617188 L 236.890625 216.25 C 236.890625 204.230469 230.832031 196.757812 221.070312 196.757812 C 214.429688 196.757812 208.878906 200.675781 206.226562 207.234375 C 205.554688 208.882812 205.226562 211.144531 205.226562 214.15625 L 205.226562 254.609375 L 184.929688 254.609375 C 184.980469 243.824219 185.179688 194.726562 184.96875 182.617188 L 205.226562 182.617188 L 205.226562 191.828125 C 205.003906 192.390625 205.09375 193.046875 205.398438 193.59375 C 205.753906 194.222656 206.503906 194.617188 207.226562 194.617188 C 208.058594 194.617188 208.769531 193.953125 209.070312 193.15625 C 211.992188 188.355469 217.382812 182.132812 230.242188 182.132812 Z M 145.226562 182.617188 L 165.226562 182.617188 L 165.226562 254.617188 L 145.226562 254.617188 Z M 145.226562 182.617188 "/>
</g>
</svg>
